PathFileType	4	(X/Y/Z)	\\147.46.242.158\로컬 디스크 (e)\MOCAP Data\Iguana Capture\iguana\Project 2\Capture day 6 after broken\Session 1\Take06.trc
DataRate	CameraRate	NumFrames	NumMarkers	Units	OrigDataRate	OrigDataStartFrame	OrigNumFrames
120.0	120.0	7	23	mm	120.0	147	8064
Frame#	Time	ana:head1			ana:head2			ana:bone1			ana:bone2			ana:bone3			ana:tail1			ana:tail2			ana:tail3			ana:tail4			ana:Rforefoot1			ana:Rforefoot2			ana:Rforefoot3			ana:Lforefoot1			ana:Lforefoot2			ana:Lforefoot3			ana:RhindLeg1			ana:RhindLeg2			ana:RhindLeg3			ana:RhindLeg4			ana:LhindLeg1			ana:LhindLeg2			ana:LhindLeg3			ana:LhindLeg4			
		X1	Y1	Z1	X2	Y2	Z2	X3	Y3	Z3	X4	Y4	Z4	X5	Y5	Z5	X6	Y6	Z6	X7	Y7	Z7	X8	Y8	Z8	X9	Y9	Z9	X10	Y10	Z10	X11	Y11	Z11	X12	Y12	Z12	X13	Y13	Z13	X14	Y14	Z14	X15	Y15	Z15	X16	Y16	Z16	X17	Y17	Z17	X18	Y18	Z18	X19	Y19	Z19	X20	Y20	Z20	X21	Y21	Z21	X22	Y22	Z22	X23	Y23	Z23	

6102	50.842	143.70387	-431.02173	91.77760	154.05656	-430.14966	91.13279	174.50438	-428.12457	77.55936	197.74394	-419.98434	64.09723	217.52037	-404.56061	44.56709	238.83464	-385.53632	42.53282	269.27667	-379.56207	61.76375	288.97437	-382.57205	92.81164	303.11154	-366.02475	119.88358	159.00926	-426.55893	56.93278	153.03925	-426.67545	42.73071	143.11342	-433.94025	28.05516	164.69693	-447.23575	60.42937	171.06303	-456.36627	50.35270	168.40979	-467.00687	37.00900	208.39709	-399.65222	34.81055	190.52766	-399.48767	29.03860	177.41246	-396.23819	13.49318	169.94844	-399.44876	5.11210	226.20256	-413.54608	36.82991	233.99472	-428.45178	30.68252	243.58862	-437.82550	15.51378	244.56644	-450.39105	9.65210	
6103	50.850	148.56602	-437.01962	88.61495	158.68141	-436.26227	88.10719	178.99289	-433.97952	74.20111	202.07497	-424.37305	61.30763	221.31558	-406.94913	43.33638	242.97777	-388.00696	42.56114	273.27707	-385.18054	62.37163	291.30402	-394.78705	93.00660	303.79153	-386.47888	124.17891	162.77751	-429.99048	54.31964	157.79729	-429.18048	39.59925	146.84056	-434.99976	25.12864	169.28659	-451.15015	55.58900	175.62010	-459.16785	44.05484	173.19640	-468.24829	29.69589	212.25485	-401.21857	34.63379	195.61038	-400.81815	27.92497	182.33675	-396.74765	12.43291	173.43513	-399.37939	5.16531	230.11180	-415.33313	34.57436	237.26823	-429.96631	26.72849	245.81642	-436.53470	9.57095	246.26013	-449.00818	5.24346	
6104	50.858	151.80351	-443.26718	85.07468	161.75298	-442.16406	84.52357	182.05664	-438.92285	71.35123	205.03754	-427.78989	59.59330	224.07973	-408.06516	42.97174	246.54375	-389.98978	42.68308	277.18295	-390.12234	61.95376	293.56998	-406.34503	90.70039	304.99170	-407.64447	122.32407	166.78020	-434.81921	51.29407	161.24825	-432.82465	36.76512	150.35007	-437.89502	21.84594	174.14748	-455.58856	51.29490	180.60048	-461.81015	38.99813	179.01701	-469.23495	23.71435	214.90585	-402.21097	33.99258	200.00111	-401.46790	26.75590	186.05240	-396.44754	11.85079	177.45869	-399.06284	4.60806	232.76814	-416.36841	34.06665	239.17918	-431.36200	26.24803	246.63417	-436.56244	8.21838	246.53273	-448.76547	4.66101	
6105	50.867	153.18954	-448.91235	81.35073	163.03940	-447.28387	80.96481	183.44167	-442.45660	68.84618	206.15955	-429.95660	58.78337	225.66611	-408.98724	43.76488	249.38263	-392.13852	43.06437	280.90976	-394.70929	60.84788	296.50818	-416.69049	86.76128	306.97806	-427.04526	116.29538	168.77219	-439.49774	47.57328	163.92749	-437.76160	33.60774	154.27858	-443.48196	17.88908	178.28705	-459.35681	48.01312	185.78355	-464.71698	36.16359	186.09999	-471.35635	20.21573	216.45190	-402.62909	34.73404	201.25603	-401.62479	27.90793	188.46071	-395.88339	12.16954	179.47899	-399.03751	5.28084	234.20522	-417.29700	34.70933	240.02374	-432.66129	27.08978	246.91078	-436.76633	8.69335	246.59302	-448.92233	4.77029	
6106	50.875	153.29727	-453.11292	77.87050	163.17635	-451.23059	77.72521	183.87379	-445.58679	66.90067	206.24625	-431.92184	58.45793	226.63486	-410.03598	44.71990	251.53522	-394.37848	43.36808	283.88718	-399.28976	59.78947	299.74197	-425.21469	82.17618	310.17191	-442.87082	108.20998	171.96956	-443.66898	43.72524	166.25131	-442.13770	30.56368	158.22993	-448.19186	14.25457	180.83688	-462.57819	45.65749	189.52901	-468.08005	34.99792	191.25941	-475.01929	19.10440	217.63222	-403.22897	35.80640	202.31982	-401.70386	28.75091	189.88972	-395.72293	12.73964	180.26804	-398.97745	5.94756	234.98445	-418.78436	35.93245	240.00101	-434.17792	28.31117	246.90944	-437.10080	9.87874	246.61545	-449.17252	5.14158	
6107	50.883	153.07439	-456.62619	75.34658	162.92000	-454.74069	75.09417	183.81827	-448.67377	65.37857	206.06039	-434.37622	58.42398	226.82649	-411.72064	45.46800	252.80026	-397.06381	43.52318	286.12823	-403.69492	58.29829	302.65497	-431.91632	77.14950	313.97552	-454.02499	99.26676	174.32642	-446.55640	41.00802	167.38367	-444.32785	28.80055	159.81447	-449.26691	12.05020	181.61705	-465.36780	43.98756	190.96373	-471.05688	33.79655	192.57967	-478.48297	18.20651	218.14651	-404.53989	36.34133	202.94617	-402.47269	29.19476	190.77512	-396.14514	13.08550	179.78877	-399.44272	7.12186	235.13365	-420.58704	36.52242	239.54709	-436.19501	29.27074	246.74652	-437.55246	10.66451	246.61911	-449.35397	5.45919	
6108	50.892	152.97775	-459.78348	74.14663	162.81708	-458.11246	74.03378	183.59665	-452.01691	64.45044	205.89441	-437.45050	58.13464	226.68990	-414.06332	45.73734	253.24965	-400.03815	43.28313	287.62494	-407.44962	56.08770	305.19623	-436.88531	72.14222	316.77356	-461.43460	91.09973	173.95232	-448.43893	39.95015	167.14583	-445.40723	28.33559	159.20752	-449.58478	11.43431	181.08397	-467.64648	42.49199	190.88342	-473.15457	32.47578	191.88573	-481.12216	17.38077	218.07114	-406.75522	36.57430	203.21854	-403.97583	29.30775	191.27878	-397.13211	13.43556	179.47818	-400.18829	7.91836	234.78004	-422.97903	36.75204	239.16515	-438.58060	29.50065	246.52013	-437.87592	10.91350	246.57254	-449.45673	5.51410	
